<?xml version="1.0" standalone="no"?>
<!DOCTYPE svg PUBLIC "-//W3C//DTD SVG 20010904//EN"
 "http://www.w3.org/TR/2001/REC-SVG-20010904/DTD/svg10.dtd">
<svg version="1.0" xmlns="http://www.w3.org/2000/svg"
 width="24.000000pt" height="24.000000pt" viewBox="0 0 24.000000 24.000000"
 preserveAspectRatio="xMidYMid meet">

<g transform="translate(0.000000,24.000000) scale(0.100000,-0.100000)"
fill="#000000" stroke="none">
<path d="M73 200 c-13 -5 -23 -14 -23 -21 0 -7 7 -8 18 -4 34 15 70 17 92 5
24 -13 40 -6 23 11 -15 15 -84 21 -110 9z"/>
<path d="M10 131 c0 -6 5 -13 10 -16 8 -5 7 -11 -1 -21 -16 -19 -4 -30 16 -14
12 10 16 9 21 -3 3 -9 3 -20 0 -26 -4 -5 -2 -12 3 -15 5 -3 11 1 15 9 8 22 36
18 36 -5 0 -11 5 -20 10 -20 6 0 10 9 10 20 0 24 25 27 34 4 3 -8 10 -13 15
-9 6 3 8 12 5 20 -9 23 5 38 22 24 18 -15 31 -4 16 14 -9 10 -9 16 0 25 6 6 9
15 5 18 -3 4 -22 -7 -42 -25 -46 -40 -83 -41 -128 -1 -36 31 -47 36 -47 21z"/>
</g>
</svg>
