<?xml version="1.0" standalone="no"?>
<!DOCTYPE svg PUBLIC "-//W3C//DTD SVG 20010904//EN"
 "http://www.w3.org/TR/2001/REC-SVG-20010904/DTD/svg10.dtd">
<svg version="1.0" xmlns="http://www.w3.org/2000/svg"
 width="50.000000pt" height="50.000000pt" viewBox="0 0 50.000000 50.000000"
 preserveAspectRatio="xMidYMid meet">

<g transform="translate(0.000000,50.000000) scale(0.100000,-0.100000)"
fill="#000000" stroke="none">
<path d="M107 494 c-11 -12 -8 -214 3 -214 6 0 10 40 10 100 l0 100 180 0 180
0 0 -230 0 -230 -180 0 -180 0 0 100 c0 62 -4 100 -10 100 -7 0 -10 -38 -8
-107 l3 -108 195 0 195 0 0 245 0 245 -191 3 c-104 1 -193 -1 -197 -4z"/>
<path d="M210 363 c0 -4 21 -29 47 -55 l47 -48 -152 0 c-95 0 -152 -4 -152
-10 0 -6 57 -10 152 -10 l152 0 -49 -50 c-27 -27 -46 -53 -42 -57 4 -4 36 21
70 55 l62 62 -60 60 c-56 56 -75 70 -75 53z"/>
</g>
</svg>
