<?xml version="1.0" standalone="no"?>
<!DOCTYPE svg PUBLIC "-//W3C//DTD SVG 20010904//EN"
 "http://www.w3.org/TR/2001/REC-SVG-20010904/DTD/svg10.dtd">
<svg version="1.0" xmlns="http://www.w3.org/2000/svg"
 width="24.000000pt" height="24.000000pt" viewBox="0 0 24.000000 24.000000"
 preserveAspectRatio="xMidYMid meet">

<g transform="translate(0.000000,24.000000) scale(0.100000,-0.100000)"
fill="#000000" stroke="none">
<path d="M63 180 c-64 -38 -64 -82 0 -120 40 -25 74 -25 114 0 42 25 57 54 43
81 -15 27 -69 59 -100 59 -14 0 -39 -9 -57 -20z m119 -30 l33 -30 -33 -30
c-43 -40 -81 -40 -124 0 l-33 30 33 30 c21 19 43 30 62 30 19 0 41 -11 62 -30z"/>
<path d="M90 145 c-26 -32 13 -81 48 -59 22 14 27 41 12 59 -16 19 -44 19 -60
0z m46 -16 c10 -17 -13 -36 -27 -22 -12 12 -4 33 11 33 5 0 12 -5 16 -11z"/>
</g>
</svg>
